<svg version="1.1" xmlns="http://www.w3.org/2000/svg" xmlns:xlink="http://www.w3.org/1999/xlink" width="1008" height="462"><defs><clipPath id="ZPJwfHApCzKg"><path fill="none" stroke="none" d=" M 0 0 L 1008 0 L 1008 462 L 0 462 L 0 0 Z"/></clipPath></defs><g transform="scale(1,1)" clip-path="url(#ZPJwfHApCzKg)"><g><rect fill="rgb(255,255,255)" stroke="none" x="0" y="0" width="1008" height="462" fill-opacity="1"/><path fill="rgb(0,102,51)" stroke="none" paint-order="stroke fill markers" d=" M 174.68457556821932 371.65264349350605 C 174.68457556821932 416.11552137472506 138.640291347205 452.15980559573933 94.17741346598586 452.15980559573933 C 49.71453558476674 452.15980559573933 13.670251363752428 416.11552137472506 13.670251363752428 371.65264349350605 C 13.670251363752428 327.18976561228703 49.71453558476674 291.14548139127277 94.17741346598586 291.14548139127277 C 138.640291347205 291.14548139127277 174.68457556821932 327.18976561228703 174.68457556821932 371.65264349350605 Z" fill-opacity="1"/><path fill="none" stroke="rgb(0,102,51)" paint-order="fill stroke markers" d=" M 174.68457556821932 371.65264349350605 C 174.68457556821932 416.11552137472506 138.640291347205 452.15980559573933 94.17741346598586 452.15980559573933 C 49.71453558476674 452.15980559573933 13.670251363752428 416.11552137472506 13.670251363752428 371.65264349350605 C 13.670251363752428 327.18976561228703 49.71453558476674 291.14548139127277 94.17741346598586 291.14548139127277 C 138.640291347205 291.14548139127277 174.68457556821932 327.18976561228703 174.68457556821932 371.65264349350605 Z" stroke-opacity="0.6980392156862745" stroke-linecap="round" stroke-linejoin="round" stroke-miterlimit="10" stroke-width="2.5"/><path fill="rgb(255,204,102)" stroke="none" paint-order="stroke fill markers" d=" M 1004.9237470450872 151.94582458042203 C 1004.9237470450872 234.13533776037673 938.2959821721252 300.76310263333875 856.1064689921702 300.76310263333875 C 773.9169558122153 300.76310263333875 707.2891909392532 234.13533776037673 707.2891909392532 151.94582458042203 C 707.2891909392532 69.7563114004673 773.9169558122153 3.128546527505307 856.1064689921702 3.128546527505307 C 938.2959821721252 3.128546527505307 1004.9237470450872 69.7563114004673 1004.9237470450872 151.94582458042203 Z" fill-opacity="1"/><path fill="none" stroke="rgb(255,204,102)" paint-order="fill stroke markers" d=" M 1004.9237470450872 151.94582458042203 C 1004.9237470450872 234.13533776037673 938.2959821721252 300.76310263333875 856.1064689921702 300.76310263333875 C 773.9169558122153 300.76310263333875 707.2891909392532 234.13533776037673 707.2891909392532 151.94582458042203 C 707.2891909392532 69.7563114004673 773.9169558122153 3.128546527505307 856.1064689921702 3.128546527505307 C 938.2959821721252 3.128546527505307 1004.9237470450872 69.7563114004673 1004.9237470450872 151.94582458042203 Z" stroke-opacity="0.6980392156862745" stroke-linecap="round" stroke-linejoin="round" stroke-miterlimit="10" stroke-width="2.5"/><path fill="none" stroke="rgb(0,0,0)" paint-order="fill stroke markers" d=" M 125.62656296699807 151.55624662324152 C 125.62656296699807 169.8797150687827 110.77245688933347 184.73382114644727 92.44898844379225 184.73382114644727 C 74.12551999825102 184.73382114644727 59.271413920586426 169.8797150687827 59.271413920586426 151.55624662324152 C 59.271413920586426 133.23277817770034 74.12551999825102 118.37867210003577 92.44898844379225 118.37867210003577 C 110.77245688933347 118.37867210003577 125.62656296699807 133.23277817770034 125.62656296699807 151.55624662324152 Z" stroke-opacity="0.6980392156862745" stroke-linecap="round" stroke-linejoin="round" stroke-miterlimit="10" stroke-width="2.5"/><path fill="rgb(255,204,102)" stroke="none" paint-order="stroke fill markers" d=" M 92.44898844379225 184.73382114644727 C 104.51019901655019 184.73382114644727 115.62133938688469 178.18830256140453 121.46794550072441 167.638895116907 C 127.31455161456412 157.08948767240952 126.97554076291271 144.19816014112405 120.58255111112851 133.97062457322755 C 114.18956145934429 123.74308900533107 102.74975376229882 117.79060601660811 90.70521384100897 118.42452917036022 L 92.44898844379225 151.55624662324152 Z" fill-opacity="1"/><path fill="none" stroke="rgb(255,204,102)" paint-order="fill stroke markers" d=" M 92.44898844379225 184.73382114644727 C 104.51019901655019 184.73382114644727 115.62133938688469 178.18830256140453 121.46794550072441 167.638895116907 C 127.31455161456412 157.08948767240952 126.97554076291271 144.19816014112405 120.58255111112851 133.97062457322755 C 114.18956145934429 123.74308900533107 102.74975376229882 117.79060601660811 90.70521384100897 118.42452917036022 L 92.44898844379225 151.55624662324152 Z" stroke-opacity="0.6980392156862745" stroke-linecap="round" stroke-linejoin="round" stroke-miterlimit="10" stroke-width="2.5"/><path fill="none" stroke="rgb(0,0,0)" paint-order="fill stroke markers" d=" M 92.44898844379225 184.73382114644727 L 90.70521384100897 118.42452917036019" stroke-opacity="0.6980392156862745" stroke-linecap="round" stroke-linejoin="round" stroke-miterlimit="10" stroke-width="2.5"/><path fill="none" stroke="rgb(0,0,0)" paint-order="fill stroke markers" d=" M 92.44898844379225 151.55624662324152 L 856.1064689921702 151.94582458042203" stroke-opacity="0.6980392156862745" stroke-linecap="round" stroke-linejoin="round" stroke-miterlimit="10" stroke-width="2.5"/><path fill="none" stroke="rgb(0,0,0)" paint-order="fill stroke markers" d=" M 92.44898844379225 184.73382114644727 L 125.40224293757456 185.12685104264744" stroke-opacity="0.6980392156862745" stroke-linecap="round" stroke-linejoin="round" stroke-miterlimit="10" stroke-width="2.5"/><path fill="none" stroke="rgb(0,0,0)" paint-order="fill stroke markers" d=" M 125.40224293757456 185.12685104264744 L 125.40241950317676 151.5730577338261" stroke-opacity="0.6980392156862745" stroke-linecap="round" stroke-linejoin="round" stroke-miterlimit="10" stroke-width="2.5"/><path fill="none" stroke="rgb(0,0,0)" paint-order="fill stroke markers" d=" M 93.54520728315322 291.1479637220938 L 92.44898844379225 151.55624662324152" stroke-opacity="0.6980392156862745" stroke-linecap="round" stroke-linejoin="round" stroke-miterlimit="10" stroke-width="2.5"/><path fill="none" stroke="rgb(0,0,0)" paint-order="fill stroke markers" d=" M 93.54520728315322 291.1479637220938 L 856.1064689921702 151.94582458042203" stroke-opacity="0.6980392156862745" stroke-linecap="round" stroke-linejoin="round" stroke-miterlimit="10" stroke-width="2.5"/></g></g></svg>